<?xml version="1.0" encoding="UTF-8"?>
<svg id="Capa_3" data-name="Capa 3" xmlns="http://www.w3.org/2000/svg" viewBox="0 0 463.83 187.73">
  <defs>
    <style>
      .cls-1 {
        fill: #fff;
      }
    </style>
  </defs>
  <g id="Capa_1" data-name="Capa 1">
    <g>
      <g>
        <path class="cls-1" d="M202.44,32.84c2.32-.17,4.64-.24,6.95-.23,6.81.02,13.62,0,20.44-.02,1.66,0,3.28.11,4.85.49,3.32.8,5.35,2.72,5.91,5.96.32,1.88.16,3.78-.23,5.7-.43,2.14-1.03,4.26-1.72,6.37-9.2,28.14-18.39,56.29-27.58,84.43-.79,2.43-1.56,4.86-2.4,7.28-1.13,3.24-2.49,6.41-4.35,9.41-2.01,3.25-4.7,5.81-8.41,7.32-1.96.79-3.98,1.18-6.03,1.24-5.08.14-10.15.09-15.22.11-3.49.01-6.97,0-10.46.02-.76,0-1.52-.02-2.28.19l-1.28-.26c13.94-42.67,27.87-85.34,41.81-128.01ZM198.28,96.73c-4.66,14.28-9.33,28.56-13.99,42.84-.29.88-.6,1.75-.86,2.63-.32,1.08-.09,1.41,1.07,1.52.98.09,1.97-.02,2.95-.26,1.67-.4,3.08-1.23,4.14-2.57.66-.84,1.14-1.76,1.47-2.72.88-2.63,1.75-5.26,2.61-7.89,8-24.49,16-48.98,24-73.47.19-.59.39-1.17.55-1.76.22-.8.32-1.61.18-2.4-.2-1.09-.75-1.96-1.91-2.33-1.22-.39-2.51-.42-3.82-.33-.68.05-1.16.4-1.39,1.02-.18.46-.34.93-.49,1.4-4.83,14.78-9.65,29.55-14.48,44.33Z"/>
        <path class="cls-1" d="M438.87,127.02c-.24.31-.33.67-.45,1.02-1.53,4.62-2.98,9.26-4.62,13.85-3.59,10-10.78,16.8-21.33,20.44-3.58,1.23-7.26,1.68-10.88,1.14-4.26-.63-7.68-2.56-10.16-5.75-3.14-4.04-3.95-8.71-2.36-13.84,2.15-6.96,4.5-13.88,6.76-20.81.69-2.11,1.36-4.22,2.05-6.32.08-.23.15-.47.25-.7.4-.92,1.09-1.48,2.15-1.52.73-.03,1.46,0,2.19,0,3.71,0,7.42,0,11.12.03,1.72.01,2.02.43,1.49,2.05-2.81,8.63-5.63,17.27-8.44,25.9-.24.73-.45,1.46-.57,2.21-.44,2.94,1.54,4,4.04,3.68,2.46-.32,4.27-1.63,5.34-3.83.37-.76.64-1.55.92-2.33,1.64-4.56,3.14-9.16,4.76-13.72,1.98-5.59,3.71-11.23,5.62-16.83.29-.85.56-1.69.63-2.57.11-1.47-.5-2.27-1.97-2.58-1.19-.26-2.45-.16-3.68-.18-6.02-.13-10.36-2.69-13.01-7.46-1.88-3.39-2.25-7.19-1.57-11.18.21-1.26.64-2.48,1.04-3.71,1.95-5.94,3.81-11.9,5.88-17.81,1.39-3.96,2.72-7.93,4.02-11.91,1.46-4.47,3.96-8.46,7.16-12.14,3.27-3.77,7.21-6.69,11.92-8.57,3.71-1.48,7.52-2.23,11.41-2.2.38,0,.75.09,1.14-.02,1.28.26,2.55.51,3.83.77.13.07.25.16.39.21,7.18,2.55,10.87,9.28,9.67,16.72-.45,2.81-1.34,5.57-2.21,8.32-2.2,6.98-4.52,13.93-6.79,20.9-.63,1.93-1.36,2.44-3.46,2.42-.03,0-.06,0-.09,0-3.67-.06-7.34-.09-11.03-.01-.54.01-1.08.03-1.62,0-1.22-.05-1.66-.61-1.38-1.74.09-.35.21-.71.33-1.06,2.82-8.63,5.65-17.26,8.47-25.9.22-.68.4-1.35.47-2.04.14-1.38-.58-2.66-1.82-3.12-.84-.31-1.73-.43-2.69-.21-2.6.6-4.39,2.09-5.29,4.47-.85,2.26-1.56,4.55-2.38,6.81-1.47,4.07-2.73,8.18-4.18,12.25-1.56,4.39-2.95,8.82-4.41,13.24-.18.53-.27,1.06-.27,1.6,0,.97.44,1.67,1.3,2.13.65.35,1.38.48,2.15.5,1.01.02,2.03,0,3.04.01,2.19.01,4.36.08,6.37.84,2.8,1.06,4.96,2.75,6.16,5.39,1.46,3.24,1.89,6.71,1.54,10.36-.11,1.11-.42,2.2-.58,3.3-2.12,6.5-4.24,12.99-6.37,19.49Z"/>
        <path class="cls-1" d="M279.73,96.71c6.22-19.05,12.45-38.1,18.67-57.15.42-1.29.84-2.58,1.25-3.86.08-.23.15-.47.24-.7.7-1.86,1.58-2.5,3.63-2.5,4.69,0,9.38.01,14.07.02,3.87,0,7.74-.02,11.6,0,1.78.01,3.51.26,5.11.9,2.59,1.04,4.04,2.91,4.4,5.58.24,1.81-.02,3.62-.47,5.44-1.6,6.53-3.83,12.94-5.95,19.37-1.12,3.39-2.24,6.78-3.34,10.18-1.39,4.3-3.22,8.44-5.9,12.29-1.7,2.44-3.69,4.67-5.97,6.67-.1.09-.2.17-.29.26-.86.79-.95,1.03-.53,1.99.67,1.52,1.18,3.1,1.43,4.76.42,2.79.27,5.61-.33,8.46-.73,3.46-1.91,6.84-3.02,10.23-2.98,9.16-5.95,18.33-8.98,27.48-.82,2.49-2.06,4.86-3.6,7.1-2.64,3.84-6.36,6.06-10.94,6.98-2.26.46-4.52.52-6.77.53-7.61.01-15.22.02-22.82.03-.32,0-.64,0-.95-.03-.84-.08-1.08-.38-.96-1.16.11-.66.3-1.3.51-1.95,6.64-20.31,13.27-40.62,19.9-60.93h-.01ZM287.88,123.05h0c-1.96,5.99-3.92,11.99-5.88,17.99-.07.2-.14.41-.19.62-.24.91.01,1.29,1,1.34.63.03,1.27,0,1.9-.06,2.28-.24,4.12-1.28,5.51-3.1.77-1.01,1.2-2.13,1.57-3.28,2.94-9.01,5.89-18.02,8.83-27.03.17-.53.34-1.06.47-1.59.24-.96.23-1.91,0-2.83-.22-.88-.78-1.48-1.72-1.72-.84-.22-1.69-.38-2.57-.43-1.95-.1-2.43.23-3.01,2.02-1.97,6.03-3.94,12.05-5.91,18.08ZM306.18,67.05h0c-1.68,5.14-3.36,10.29-5.04,15.44-.09.26-.18.53-.23.79-.12.65.08.92.74,1.07.71.16,1.45.07,2.18-.02,2.73-.34,4.81-1.62,6.13-4.03.35-.64.62-1.29.84-1.97,2.49-7.6,4.98-15.2,7.46-22.8.11-.35.22-.7.3-1.06.19-.84.2-1.67.04-2.48-.19-.92-.74-1.55-1.63-1.94-1.3-.56-2.73-.48-4.16-.38-.48.03-.82.33-1.07.74-.28.47-.43.97-.59,1.46-1.65,5.06-3.31,10.12-4.96,15.17Z"/>
        <path class="cls-1" d="M273.63,97.05c-4.68,14.34-9.36,28.68-14.05,43.01-1.55,4.73-3.99,9.06-7.66,12.8-4.36,4.44-9.57,7.59-15.58,9.33-5.18,1.5-10.1,1.17-14.58-1.07-3.94-1.97-6.28-5.18-7.34-9.27-.81-3.15-.62-6.35.42-9.63,9.3-29.19,19-58.29,28.48-87.44.67-2.07,1.31-4.17,2.27-6.17,2.31-4.84,5.87-8.79,10.39-12.02,3.27-2.34,6.81-4.11,10.69-5.16,4.13-1.12,8.2-1.31,12.1-.11,3.31,1.02,5.95,2.88,7.86,5.56,2.54,3.58,3.29,7.63,2.36,12.11-.43,2.05-.99,4.09-1.65,6.11-4.57,13.99-9.14,27.97-13.71,41.96ZM246.62,97.01h-.01c-4.58,14.01-9.16,28.02-13.73,42.04-.49,1.49-.99,2.98-1.43,4.48-.36,1.21-.27,2.35.66,3.2,1.04.96,2.37,1.3,3.88.95,1.97-.45,3.49-1.55,4.55-3.23.42-.67.72-1.39.96-2.12.64-1.96,1.28-3.92,1.92-5.88,9.19-28.14,18.39-56.29,27.58-84.43.26-.79.52-1.58.72-2.38.34-1.35,0-2.49-1.05-3.33-.8-.64-1.81-.83-2.9-.7-2.09.25-3.7,1.32-4.92,2.98-.61.83-.99,1.74-1.3,2.69-4.97,15.24-9.95,30.49-14.93,45.73Z"/>
        <path class="cls-1" d="M366.94,93.69c6.38-19.55,12.77-39.09,19.16-58.64.17-.53.34-1.06.56-1.57.26-.63.75-1.02,1.48-1.08.41-.04.83-.08,1.24-.08,9.35-.02,18.7-.03,28.05-.04.38,0,.76.03,1.12.1.65.13.86.42.77,1.07-.04.33-.15.65-.25.97-1.36,4.19-2.72,8.37-4.08,12.56-.5,1.55-1.22,2.08-2.91,2.08-3.84.02-7.67,0-11.5,0-.06,0-.13,0-.19,0-1.85-.02-2.32.3-2.87,1.99-4.22,12.9-8.43,25.81-12.65,38.71-.04.12-.08.23-.11.35-.41,1.37-.15,1.75,1.34,1.78,1.64.03,3.3-.02,4.95-.03,2.25,0,4.5-.02,6.75-.01,1.96,0,2.35.57,1.76,2.39-1.33,4.07-2.66,8.13-3.99,12.2-.03.09-.06.18-.09.26-.47,1.37-1.24,1.93-2.73,1.95-1.62.01-3.23,0-4.85,0-2.41,0-4.82-.01-7.22-.01-1.49,0-2.11.42-2.56,1.8-1.29,3.92-2.55,7.84-3.83,11.77-2.1,6.44-4.22,12.87-6.33,19.31-.13.41-.3.81-.3,1.24,0,.59.21.87.81.98.3.06.62.06.94.06,3.84,0,7.67-.03,11.51-.03,1.94,0,2.3.46,1.73,2.21-1.35,4.16-2.71,8.31-4.07,12.47-.06.18-.11.35-.18.53-.4,1.04-1.04,1.54-2.18,1.57-1.52.04-3.04.02-4.57.02-7.83.02-15.66.04-23.49.05-.51,0-1.02.02-1.51-.04-.88-.11-1.22-.56-1.06-1.41.32-1.74.97-3.42,1.58-5.1.23-.64.48-1.27.69-1.91,6.37-19.49,12.73-38.98,19.1-58.47Z"/>
        <path class="cls-1" d="M327.1,96.68c6.2-18.99,12.41-37.99,18.61-56.98.48-1.46.95-2.93,1.42-4.39.09-.26.17-.53.26-.79.56-1.55,1.5-2.23,3.2-2.24,1.3-.01,2.59.06,3.89.06,2.76,0,5.52,0,8.27,0,1.62,0,1.87.34,1.49,1.83-.08.33-.19.65-.3.97-11.48,35.15-22.95,70.3-34.43,105.44-.16.5-.34.99-.55,1.48-.45,1.03-.15,1.52.97,1.68.9.13,1.83.03,2.75.03,3.17,0,6.34-.02,9.51-.02.19,0,.38,0,.57.02.99.09,1.36.5,1.27,1.45-.07.73-.36,1.42-.62,2.11-1.23,3.27-2.3,6.58-3.24,9.91-.15.53-.3,1.07-.52,1.58-.52,1.21-1.19,1.65-2.53,1.72-.54.03-1.08.03-1.62.03-8.91,0-17.81,0-26.72,0-.35,0-.7,0-1.04-.02-.94-.07-1.24-.45-1.03-1.35.11-.47.28-.94.43-1.41,3.78-11.59,7.57-23.18,11.35-34.77,2.87-8.78,5.74-17.56,8.6-26.34h0Z"/>
      </g>
      <g>
        <polygon class="cls-1" points="84.13 78.46 152.17 78.96 161.31 69.95 96.71 69.48 90.12 72.54 84.13 78.46"/>
        <polygon class="cls-1" points="77.19 109.27 9.14 108.78 0 117.79 64.61 118.26 71.2 115.19 77.19 109.27"/>
        <polygon class="cls-1" points="64.61 118.26 41.36 187.73 140.77 89.77 42.09 89.05 98.88 33.09 83.7 78.46 96.27 69.47 119.52 0 20.12 97.96 118.79 98.68 62 154.64 77.19 109.27 64.61 118.26"/>
      </g>
    </g>
  </g>
</svg>